<svg xmlns="http://www.w3.org/2000/svg" xmlns:xlink="http://www.w3.org/1999/xlink" width="200" zoomAndPan="magnify" viewBox="0 0 150 149.999998" height="200" preserveAspectRatio="xMidYMid meet" version="1.2"><defs><clipPath id="b30de1aaa1"><path d="M 22.910156 27.539062 L 144.410156 27.539062 L 144.410156 148.289062 L 22.910156 148.289062 Z M 22.910156 27.539062 "/></clipPath></defs><g id="65204fc821"><g clip-rule="nonzero" clip-path="url(#b30de1aaa1)"><path style=" stroke:none;fill-rule:nonzero;fill:#e11172;fill-opacity:1;" d="M 128.835938 58.652344 C 125.632812 58.542969 122.632812 59.382812 120.097656 60.910156 C 118.644531 61.789062 116.792969 60.765625 116.796875 59.066406 L 116.839844 29.878906 C 116.84375 28.679688 115.875 27.710938 114.679688 27.710938 L 25.222656 27.566406 C 24.027344 27.566406 23.054688 28.53125 23.050781 29.726562 L 22.910156 119.164062 C 22.910156 120.359375 23.875 121.328125 25.070312 121.332031 L 54.085938 121.378906 C 55.730469 121.378906 56.789062 123.15625 55.976562 124.585938 C 54.671875 126.882812 53.925781 129.542969 53.921875 132.375 C 53.90625 141.132812 60.996094 148.246094 69.757812 148.257812 C 78.519531 148.273438 85.632812 141.183594 85.644531 132.425781 C 85.652344 129.59375 84.914062 126.933594 83.613281 124.628906 C 82.808594 123.195312 83.871094 121.425781 85.515625 121.425781 L 114.53125 121.472656 C 115.726562 121.476562 116.695312 120.507812 116.699219 119.3125 L 116.746094 89.9375 C 116.75 88.25 118.589844 87.210938 120.027344 88.089844 C 122.433594 89.554688 125.253906 90.398438 128.277344 90.398438 C 137.179688 90.398438 144.371094 83.074219 144.152344 74.125 C 143.949219 65.769531 137.1875 58.9375 128.835938 58.652344 "/></g></g></svg>