<svg xmlns="http://www.w3.org/2000/svg" xmlns:xlink="http://www.w3.org/1999/xlink" width="200" zoomAndPan="magnify" viewBox="0 0 150 149.999998" height="200" preserveAspectRatio="xMidYMid meet" version="1.0"><defs><clipPath id="78429aae2d"><path d="M 7 27 L 123 27 L 123 143 L 7 143 Z M 7 27 " clip-rule="nonzero"/></clipPath><clipPath id="110e5be68a"><path d="M 165.3125 74.882812 L 75.15625 165.039062 L -15 74.882812 L 75.15625 -15.273438 Z M 165.3125 74.882812 " clip-rule="nonzero"/></clipPath><clipPath id="17bcc576d6"><path d="M 165.3125 74.882812 L 75.15625 165.039062 L -15 74.882812 L 75.15625 -15.273438 Z M 165.3125 74.882812 " clip-rule="nonzero"/></clipPath><clipPath id="79ca6ad52d"><path d="M 62.851562 47.882812 L 122.851562 47.882812 L 122.851562 107.882812 L 62.851562 107.882812 Z M 62.851562 47.882812 " clip-rule="nonzero"/></clipPath><clipPath id="26b70e675f"><path d="M 27 7 L 143 7 L 143 123 L 27 123 Z M 27 7 " clip-rule="nonzero"/></clipPath><clipPath id="33ad3bea5a"><path d="M -15.3125 74.882812 L 74.84375 -15.273438 L 165 74.882812 L 74.84375 165.039062 Z M -15.3125 74.882812 " clip-rule="nonzero"/></clipPath><clipPath id="5a8abc5545"><path d="M -15.3125 74.882812 L 74.84375 -15.273438 L 165 74.882812 L 74.84375 165.039062 Z M -15.3125 74.882812 " clip-rule="nonzero"/></clipPath></defs><g clip-path="url(#78429aae2d)"><g clip-path="url(#110e5be68a)"><g clip-path="url(#17bcc576d6)"><path fill="#e11172" d="M 77.714844 142.195312 C 82.023438 141.214844 85.460938 137.632812 86.316406 133.296875 C 86.90625 130.300781 86.328125 127.46875 84.96875 125.148438 C 84.332031 124.066406 85.148438 122.714844 86.402344 122.714844 L 110.875 122.714844 C 117.476562 122.714844 122.832031 117.359375 122.832031 110.757812 L 122.832031 86.285156 C 122.832031 85.03125 121.480469 84.214844 120.398438 84.851562 C 118.078125 86.210938 115.242188 86.789062 112.246094 86.199219 C 107.914062 85.34375 104.328125 81.902344 103.347656 77.59375 C 101.628906 70.039062 107.324219 63.335938 114.585938 63.335938 C 116.722656 63.335938 118.71875 63.921875 120.433594 64.933594 C 121.492188 65.5625 122.832031 64.703125 122.832031 63.46875 L 122.832031 39.007812 C 122.832031 32.40625 117.476562 27.050781 110.875 27.050781 L 86.402344 27.050781 C 85.148438 27.050781 84.332031 28.402344 84.96875 29.484375 C 86.328125 31.804688 86.90625 34.640625 86.316406 37.636719 C 85.460938 41.96875 82.019531 45.554688 77.710938 46.535156 C 70.15625 48.253906 63.453125 42.558594 63.453125 35.296875 C 63.453125 33.160156 64.039062 31.164062 65.050781 29.449219 C 65.679688 28.390625 64.820312 27.050781 63.585938 27.050781 L 39.125 27.050781 C 32.523438 27.050781 27.167969 32.40625 27.167969 39.007812 L 27.167969 63.480469 C 27.167969 64.734375 25.816406 65.550781 24.734375 64.914062 C 22.414062 63.554688 19.582031 62.976562 16.585938 63.566406 C 12.25 64.421875 8.667969 67.859375 7.683594 72.167969 C 5.964844 79.722656 11.660156 86.429688 18.921875 86.429688 C 21.058594 86.429688 23.054688 85.84375 24.769531 84.832031 C 25.828125 84.203125 27.167969 85.0625 27.167969 86.296875 L 27.167969 110.757812 C 27.167969 117.359375 32.523438 122.714844 39.125 122.714844 L 63.585938 122.714844 C 64.820312 122.714844 65.679688 124.050781 65.050781 125.113281 C 64.039062 126.828125 63.453125 128.824219 63.453125 130.960938 C 63.453125 138.222656 70.160156 143.917969 77.714844 142.195312 " fill-opacity="1" fill-rule="nonzero"/></g></g></g><g clip-path="url(#79ca6ad52d)"><path fill="#e11172" d="M 122.851562 101.214844 C 122.851562 104.898438 119.863281 107.882812 116.183594 107.882812 L 69.515625 107.882812 C 65.835938 107.882812 62.851562 104.898438 62.851562 101.214844 L 62.851562 54.550781 C 62.851562 50.867188 65.835938 47.882812 69.515625 47.882812 L 116.183594 47.882812 C 119.863281 47.882812 122.851562 50.867188 122.851562 54.550781 Z M 122.851562 101.214844 " fill-opacity="1" fill-rule="nonzero"/></g><g clip-path="url(#26b70e675f)"><g clip-path="url(#33ad3bea5a)"><g clip-path="url(#5a8abc5545)"><path fill="#e11172" d="M 72.285156 7.566406 C 67.976562 8.546875 64.539062 12.132812 63.683594 16.46875 C 63.09375 19.464844 63.671875 22.296875 65.03125 24.617188 C 65.667969 25.699219 64.851562 27.050781 63.597656 27.050781 L 39.125 27.050781 C 32.523438 27.050781 27.167969 32.40625 27.167969 39.007812 L 27.167969 63.480469 C 27.167969 64.734375 28.519531 65.550781 29.601562 64.914062 C 31.921875 63.550781 34.757812 62.976562 37.753906 63.566406 C 42.085938 64.421875 45.671875 67.863281 46.652344 72.167969 C 48.371094 79.726562 42.675781 86.429688 35.414062 86.429688 C 33.277344 86.429688 31.28125 85.84375 29.566406 84.832031 C 28.507812 84.203125 27.167969 85.0625 27.167969 86.296875 L 27.167969 110.757812 C 27.167969 117.359375 32.523438 122.714844 39.125 122.714844 L 63.597656 122.714844 C 64.851562 122.714844 65.667969 121.363281 65.03125 120.28125 C 63.671875 117.960938 63.09375 115.125 63.683594 112.128906 C 64.539062 107.796875 67.980469 104.210938 72.285156 103.230469 C 79.84375 101.511719 86.546875 107.207031 86.546875 114.46875 C 86.546875 116.605469 85.960938 118.601562 84.949219 120.316406 C 84.320312 121.375 85.179688 122.714844 86.414062 122.714844 L 110.875 122.714844 C 117.476562 122.714844 122.832031 117.359375 122.832031 110.757812 L 122.832031 86.285156 C 122.832031 85.03125 124.183594 84.214844 125.265625 84.851562 C 127.585938 86.210938 130.417969 86.789062 133.414062 86.199219 C 137.75 85.34375 141.332031 81.902344 142.3125 77.597656 C 144.035156 70.039062 138.339844 63.335938 131.078125 63.335938 C 128.941406 63.335938 126.945312 63.921875 125.230469 64.933594 C 124.167969 65.5625 122.832031 64.703125 122.832031 63.46875 L 122.832031 39.007812 C 122.832031 32.40625 117.476562 27.050781 110.875 27.050781 L 86.414062 27.050781 C 85.179688 27.050781 84.320312 25.710938 84.949219 24.652344 C 85.960938 22.9375 86.546875 20.941406 86.546875 18.804688 C 86.546875 11.542969 79.839844 5.847656 72.285156 7.566406 " fill-opacity="1" fill-rule="nonzero"/></g></g></g></svg>