<svg xmlns="http://www.w3.org/2000/svg" xmlns:xlink="http://www.w3.org/1999/xlink" width="200" zoomAndPan="magnify" viewBox="0 0 150 149.999998" height="200" preserveAspectRatio="xMidYMid meet" version="1.0"><defs><clipPath id="df0c3cfda6"><path d="M 7 26 L 123 26 L 123 143 L 7 143 Z M 7 26 " clip-rule="nonzero"/></clipPath><clipPath id="67d6199865"><path d="M 165.070312 74.644531 L 74.914062 164.800781 L -15.242188 74.644531 L 74.914062 -15.511719 Z M 165.070312 74.644531 " clip-rule="nonzero"/></clipPath><clipPath id="5e540922c4"><path d="M 165.070312 74.644531 L 74.914062 164.800781 L -15.242188 74.644531 L 74.914062 -15.511719 Z M 165.070312 74.644531 " clip-rule="nonzero"/></clipPath><clipPath id="d3e5f5df0b"><path d="M 62.839844 48.398438 L 122.839844 48.398438 L 122.839844 108.398438 L 62.839844 108.398438 Z M 62.839844 48.398438 " clip-rule="nonzero"/></clipPath><clipPath id="8f1dc03ef2"><path d="M 28 27 L 144 27 L 144 143 L 28 143 Z M 28 27 " clip-rule="nonzero"/></clipPath><clipPath id="c95f1592b7"><path d="M 76.195312 -15.078125 L 166.351562 75.078125 L 76.195312 165.234375 L -13.960938 75.078125 Z M 76.195312 -15.078125 " clip-rule="nonzero"/></clipPath><clipPath id="f472bab66b"><path d="M 76.195312 -15.078125 L 166.351562 75.078125 L 76.195312 165.234375 L -13.960938 75.078125 Z M 76.195312 -15.078125 " clip-rule="nonzero"/></clipPath></defs><g clip-path="url(#df0c3cfda6)"><g clip-path="url(#67d6199865)"><g clip-path="url(#5e540922c4)"><path fill="#742c8f" d="M 77.703125 141.777344 C 82 140.800781 85.429688 137.226562 86.28125 132.902344 C 86.867188 129.914062 86.296875 127.089844 84.9375 124.773438 C 84.304688 123.695312 85.117188 122.347656 86.367188 122.347656 L 110.773438 122.347656 C 117.359375 122.347656 122.699219 117.007812 122.699219 110.421875 L 122.699219 86.015625 C 122.699219 84.765625 121.351562 83.953125 120.273438 84.585938 C 117.960938 85.945312 115.132812 86.515625 112.144531 85.929688 C 107.820312 85.078125 104.246094 81.644531 103.269531 77.347656 C 101.554688 69.8125 107.234375 63.128906 114.476562 63.128906 C 116.605469 63.128906 118.597656 63.710938 120.308594 64.722656 C 121.367188 65.347656 122.699219 64.492188 122.699219 63.261719 L 122.699219 38.867188 C 122.699219 32.277344 117.359375 26.9375 110.773438 26.941406 L 86.367188 26.9375 C 85.117188 26.9375 84.304688 28.289062 84.9375 29.367188 C 86.296875 31.679688 86.871094 34.507812 86.28125 37.496094 C 85.429688 41.816406 81.996094 45.394531 77.703125 46.371094 C 70.164062 48.085938 63.480469 42.40625 63.480469 35.164062 C 63.480469 33.03125 64.0625 31.042969 65.074219 29.332031 C 65.699219 28.273438 64.84375 26.9375 63.613281 26.9375 L 39.21875 26.941406 C 32.632812 26.9375 27.292969 32.277344 27.292969 38.867188 L 27.292969 63.273438 C 27.292969 64.523438 25.941406 65.335938 24.863281 64.703125 C 22.550781 63.34375 19.722656 62.769531 16.738281 63.359375 C 12.414062 64.210938 8.839844 67.640625 7.859375 71.9375 C 6.144531 79.472656 11.824219 86.160156 19.066406 86.160156 C 21.195312 86.160156 23.1875 85.578125 24.898438 84.566406 C 25.957031 83.9375 27.292969 84.796875 27.292969 86.027344 L 27.292969 110.421875 C 27.292969 117.007812 32.632812 122.347656 39.21875 122.347656 L 63.613281 122.347656 C 64.84375 122.347656 65.699219 123.683594 65.074219 124.742188 C 64.0625 126.449219 63.480469 128.441406 63.480469 130.574219 C 63.480469 137.816406 70.167969 143.496094 77.703125 141.777344 " fill-opacity="1" fill-rule="nonzero"/></g></g></g><g clip-path="url(#d3e5f5df0b)"><path fill="#742c8f" d="M 122.839844 101.730469 C 122.839844 105.414062 119.855469 108.398438 116.171875 108.398438 L 69.507812 108.398438 C 65.824219 108.398438 62.839844 105.414062 62.839844 101.730469 L 62.839844 55.066406 C 62.839844 51.382812 65.824219 48.398438 69.507812 48.398438 L 116.171875 48.398438 C 119.855469 48.398438 122.839844 51.382812 122.839844 55.066406 Z M 122.839844 101.730469 " fill-opacity="1" fill-rule="nonzero"/></g><g clip-path="url(#8f1dc03ef2)"><g clip-path="url(#c95f1592b7)"><g clip-path="url(#f472bab66b)"><path fill="#742c8f" d="M 143.332031 72.289062 C 142.351562 67.992188 138.777344 64.5625 134.457031 63.710938 C 131.46875 63.121094 128.640625 63.695312 126.328125 65.054688 C 125.25 65.6875 123.898438 64.875 123.902344 63.625 L 123.902344 39.21875 C 123.902344 32.632812 118.5625 27.292969 111.972656 27.292969 L 87.566406 27.292969 C 86.316406 27.292969 85.503906 28.640625 86.136719 29.71875 C 87.496094 32.03125 88.070312 34.859375 87.480469 37.847656 C 86.628906 42.171875 83.199219 45.746094 78.902344 46.722656 C 71.367188 48.4375 64.679688 42.757812 64.679688 35.515625 C 64.679688 33.386719 65.261719 31.394531 66.273438 29.683594 C 66.902344 28.625 66.042969 27.292969 64.8125 27.292969 L 40.417969 27.292969 C 33.832031 27.292969 28.492188 32.632812 28.492188 39.21875 L 28.492188 63.625 C 28.492188 64.875 29.839844 65.6875 30.917969 65.054688 C 33.230469 63.695312 36.058594 63.121094 39.046875 63.710938 C 43.371094 64.5625 46.945312 67.996094 47.921875 72.289062 C 49.640625 79.824219 43.957031 86.511719 36.714844 86.511719 C 34.585938 86.511719 32.59375 85.929688 30.882812 84.917969 C 29.824219 84.289062 28.492188 85.148438 28.492188 86.378906 L 28.492188 110.773438 C 28.492188 117.359375 33.832031 122.699219 40.417969 122.699219 L 64.824219 122.699219 C 66.074219 122.699219 66.886719 124.050781 66.253906 125.128906 C 64.898438 127.441406 64.324219 130.265625 64.910156 133.253906 C 65.761719 137.578125 69.191406 141.152344 73.488281 142.132812 C 81.023438 143.847656 87.710938 138.167969 87.710938 130.925781 C 87.710938 128.792969 87.128906 126.804688 86.117188 125.09375 C 85.492188 124.035156 86.347656 122.699219 87.578125 122.699219 L 111.972656 122.699219 C 118.5625 122.699219 123.902344 117.359375 123.902344 110.773438 L 123.898438 86.378906 C 123.902344 85.148438 125.234375 84.289062 126.292969 84.917969 C 128.003906 85.929688 129.996094 86.511719 132.125 86.511719 C 139.367188 86.511719 145.046875 79.824219 143.332031 72.289062 " fill-opacity="1" fill-rule="nonzero"/></g></g></g></svg>