<svg xmlns="http://www.w3.org/2000/svg" xmlns:xlink="http://www.w3.org/1999/xlink" width="200" zoomAndPan="magnify" viewBox="0 0 150 149.999998" height="200" preserveAspectRatio="xMidYMid meet" version="1.0"><defs><clipPath id="939812fa25"><path d="M 27 7 L 143 7 L 143 123 L 27 123 Z M 27 7 " clip-rule="nonzero"/></clipPath><clipPath id="83306c3290"><path d="M -15.195312 74.761719 L 74.960938 -15.394531 L 165.117188 74.761719 L 74.960938 164.917969 Z M -15.195312 74.761719 " clip-rule="nonzero"/></clipPath><clipPath id="6c778c8267"><path d="M -15.195312 74.761719 L 74.960938 -15.394531 L 165.117188 74.761719 L 74.960938 164.917969 Z M -15.195312 74.761719 " clip-rule="nonzero"/></clipPath><clipPath id="1032dd7577"><path d="M 48.75 62.765625 L 108.75 62.765625 L 108.75 122.765625 L 48.75 122.765625 Z M 48.75 62.765625 " clip-rule="nonzero"/></clipPath></defs><g clip-path="url(#939812fa25)"><g clip-path="url(#83306c3290)"><g clip-path="url(#6c778c8267)"><path fill="#088f9d" d="M 72.285156 7.539062 C 67.984375 8.519531 64.546875 12.097656 63.695312 16.425781 C 63.105469 19.417969 63.679688 22.246094 65.042969 24.566406 C 65.675781 25.644531 64.859375 26.996094 63.609375 26.996094 L 39.171875 26.996094 C 32.574219 26.996094 27.230469 32.339844 27.230469 38.9375 L 27.230469 63.375 C 27.230469 64.625 28.578125 65.441406 29.660156 64.804688 C 31.976562 63.445312 34.808594 62.871094 37.796875 63.460938 C 42.128906 64.3125 45.707031 67.75 46.6875 72.050781 C 48.402344 79.597656 42.714844 86.289062 35.464844 86.289062 C 33.332031 86.289062 31.335938 85.707031 29.625 84.695312 C 28.566406 84.066406 27.230469 84.925781 27.230469 86.15625 L 27.230469 110.585938 C 27.230469 117.179688 32.574219 122.527344 39.171875 122.527344 L 63.609375 122.527344 C 64.859375 122.527344 65.675781 121.175781 65.042969 120.097656 C 63.679688 117.78125 63.105469 114.949219 63.695312 111.957031 C 64.546875 107.628906 67.984375 104.046875 72.285156 103.070312 C 79.832031 101.351562 86.523438 107.039062 86.523438 114.289062 C 86.523438 116.425781 85.941406 118.417969 84.929688 120.128906 C 84.300781 121.191406 85.160156 122.527344 86.394531 122.527344 L 110.820312 122.527344 C 117.414062 122.527344 122.761719 117.179688 122.761719 110.585938 L 122.761719 86.144531 C 122.761719 84.894531 124.113281 84.082031 125.191406 84.714844 C 127.507812 86.074219 130.335938 86.648438 133.328125 86.058594 C 137.65625 85.207031 141.238281 81.773438 142.21875 77.472656 C 143.933594 69.925781 138.246094 63.230469 130.996094 63.230469 C 128.863281 63.230469 126.867188 63.8125 125.15625 64.824219 C 124.097656 65.453125 122.761719 64.59375 122.761719 63.363281 L 122.761719 38.9375 C 122.761719 32.339844 117.414062 26.996094 110.820312 26.996094 L 86.390625 26.996094 C 85.160156 26.996094 84.300781 25.65625 84.929688 24.597656 C 85.941406 22.886719 86.523438 20.894531 86.523438 18.757812 C 86.523438 11.507812 79.828125 5.820312 72.285156 7.539062 " fill-opacity="1" fill-rule="nonzero"/></g></g></g><g clip-path="url(#1032dd7577)"><path fill="#088f9d" d="M 108.75 116.097656 C 108.75 119.78125 105.765625 122.765625 102.082031 122.765625 L 55.417969 122.765625 C 51.734375 122.765625 48.75 119.78125 48.75 116.097656 L 48.75 69.433594 C 48.75 65.75 51.734375 62.765625 55.417969 62.765625 L 102.082031 62.765625 C 105.765625 62.765625 108.75 65.75 108.75 69.433594 Z M 108.75 116.097656 " fill-opacity="1" fill-rule="nonzero"/></g></svg>