<svg xmlns="http://www.w3.org/2000/svg" xmlns:xlink="http://www.w3.org/1999/xlink" width="200" zoomAndPan="magnify" viewBox="0 0 150 149.999998" height="200" preserveAspectRatio="xMidYMid meet" version="1.0"><defs><clipPath id="3bd2343a49"><path d="M 27 7 L 143 7 L 143 123 L 27 123 Z M 27 7 " clip-rule="nonzero"/></clipPath><clipPath id="45569c4526"><path d="M -15.3125 74.882812 L 74.84375 -15.273438 L 165 74.882812 L 74.84375 165.039062 Z M -15.3125 74.882812 " clip-rule="nonzero"/></clipPath><clipPath id="a2f8c8cc96"><path d="M -15.3125 74.882812 L 74.84375 -15.273438 L 165 74.882812 L 74.84375 165.039062 Z M -15.3125 74.882812 " clip-rule="nonzero"/></clipPath></defs><g clip-path="url(#3bd2343a49)"><g clip-path="url(#45569c4526)"><g clip-path="url(#a2f8c8cc96)"><path fill="#fa7402" d="M 72.285156 7.566406 C 67.976562 8.546875 64.539062 12.132812 63.683594 16.46875 C 63.09375 19.464844 63.671875 22.296875 65.03125 24.617188 C 65.667969 25.699219 64.851562 27.050781 63.597656 27.050781 L 39.125 27.050781 C 32.523438 27.050781 27.167969 32.40625 27.167969 39.007812 L 27.167969 63.480469 C 27.167969 64.734375 28.519531 65.550781 29.601562 64.914062 C 31.921875 63.550781 34.757812 62.976562 37.753906 63.566406 C 42.085938 64.421875 45.671875 67.863281 46.652344 72.167969 C 48.371094 79.726562 42.675781 86.429688 35.414062 86.429688 C 33.277344 86.429688 31.28125 85.84375 29.566406 84.832031 C 28.507812 84.203125 27.167969 85.0625 27.167969 86.296875 L 27.167969 110.757812 C 27.167969 117.359375 32.523438 122.714844 39.125 122.714844 L 63.597656 122.714844 C 64.851562 122.714844 65.667969 121.363281 65.03125 120.28125 C 63.671875 117.960938 63.09375 115.125 63.683594 112.128906 C 64.539062 107.796875 67.980469 104.210938 72.285156 103.230469 C 79.84375 101.511719 86.546875 107.207031 86.546875 114.46875 C 86.546875 116.605469 85.960938 118.601562 84.949219 120.316406 C 84.320312 121.375 85.179688 122.714844 86.414062 122.714844 L 110.875 122.714844 C 117.476562 122.714844 122.832031 117.359375 122.832031 110.757812 L 122.832031 86.285156 C 122.832031 85.03125 124.183594 84.214844 125.265625 84.851562 C 127.585938 86.210938 130.417969 86.789062 133.414062 86.199219 C 137.75 85.34375 141.332031 81.902344 142.3125 77.597656 C 144.035156 70.039062 138.339844 63.335938 131.078125 63.335938 C 128.941406 63.335938 126.945312 63.921875 125.230469 64.933594 C 124.167969 65.5625 122.832031 64.703125 122.832031 63.46875 L 122.832031 39.007812 C 122.832031 32.40625 117.476562 27.050781 110.875 27.050781 L 86.414062 27.050781 C 85.179688 27.050781 84.320312 25.710938 84.949219 24.652344 C 85.960938 22.9375 86.546875 20.941406 86.546875 18.804688 C 86.546875 11.542969 79.839844 5.847656 72.285156 7.566406 " fill-opacity="1" fill-rule="nonzero"/></g></g></g></svg>