<svg xmlns="http://www.w3.org/2000/svg" xmlns:xlink="http://www.w3.org/1999/xlink" width="200" zoomAndPan="magnify" viewBox="0 0 150 149.999998" height="200" preserveAspectRatio="xMidYMid meet" version="1.2"><defs><clipPath id="932a4484fd"><path d="M 23.191406 1 L 143.660156 1 L 143.660156 121.527344 L 23.191406 121.527344 Z M 23.191406 1 "/></clipPath></defs><g id="e33082d77c"><g clip-rule="nonzero" clip-path="url(#932a4484fd)"><path style=" stroke:none;fill-rule:nonzero;fill:#fa7402;fill-opacity:1;" d="M 35.152344 90.445312 C 31.902344 90.441406 28.878906 89.457031 26.367188 87.773438 C 24.9375 86.816406 23.015625 87.847656 23.011719 89.570312 L 22.964844 119.222656 C 22.964844 120.414062 23.929688 121.382812 25.125 121.382812 L 114.460938 121.527344 C 115.65625 121.527344 116.625 120.5625 116.625 119.371094 L 116.671875 90.4375 C 116.675781 88.792969 118.441406 87.761719 119.886719 88.558594 C 122.359375 89.921875 125.234375 90.644531 128.289062 90.503906 C 136.550781 90.117188 143.191406 83.316406 143.382812 75.054688 C 143.589844 66.132812 136.414062 58.832031 127.53125 58.832031 C 124.765625 58.832031 122.167969 59.542969 119.902344 60.785156 C 118.472656 61.574219 116.71875 60.511719 116.722656 58.878906 L 116.769531 30.132812 C 116.769531 28.941406 115.804688 27.972656 114.609375 27.972656 L 85.636719 27.925781 C 83.992188 27.921875 82.933594 26.152344 83.746094 24.722656 C 85.050781 22.429688 85.796875 19.777344 85.800781 16.953125 C 85.8125 8.214844 78.734375 1.117188 69.984375 1.105469 C 61.234375 1.089844 54.132812 8.164062 54.117188 16.902344 C 54.113281 19.730469 54.851562 22.382812 56.148438 24.679688 C 56.953125 26.109375 55.890625 27.878906 54.246094 27.875 L 25.273438 27.828125 C 24.078125 27.828125 23.109375 28.792969 23.109375 29.984375 L 23.0625 59.636719 C 23.058594 61.355469 24.976562 62.398438 26.410156 61.441406 C 28.925781 59.769531 31.953125 58.792969 35.203125 58.796875 C 43.953125 58.8125 51.035156 65.90625 51.019531 74.648438 C 51.003906 83.386719 43.902344 90.460938 35.152344 90.445312 "/></g></g></svg>