<svg xmlns="http://www.w3.org/2000/svg" xmlns:xlink="http://www.w3.org/1999/xlink" width="200" zoomAndPan="magnify" viewBox="0 0 150 149.999998" height="200" preserveAspectRatio="xMidYMid meet" version="1.2"><defs><clipPath id="71b3e9c78f"><path d="M 23.269531 27.390625 L 144 27.390625 L 144 148.890625 L 23.269531 148.890625 Z M 23.269531 27.390625 "/></clipPath></defs><g id="b710664d77"><g clip-rule="nonzero" clip-path="url(#71b3e9c78f)"><path style=" stroke:none;fill-rule:nonzero;fill:#088f9d;fill-opacity:1;" d="M 54.382812 42.964844 C 54.269531 46.167969 55.113281 49.167969 56.640625 51.703125 C 57.515625 53.15625 56.496094 55.007812 54.796875 55.007812 L 25.605469 54.960938 C 24.410156 54.957031 23.441406 55.925781 23.441406 57.121094 L 23.296875 146.582031 C 23.296875 147.777344 24.261719 148.746094 25.457031 148.75 L 114.894531 148.890625 C 116.089844 148.894531 117.058594 147.925781 117.0625 146.730469 L 117.109375 117.714844 C 117.109375 116.070312 118.882812 115.011719 120.316406 115.824219 C 122.613281 117.128906 125.273438 117.875 128.105469 117.882812 C 136.863281 117.894531 143.976562 110.804688 143.988281 102.042969 C 144.003906 93.28125 136.914062 86.167969 128.15625 86.15625 C 125.324219 86.152344 122.664062 86.890625 120.359375 88.1875 C 118.925781 88.996094 117.15625 87.929688 117.15625 86.285156 L 117.203125 57.269531 C 117.207031 56.074219 116.238281 55.105469 115.042969 55.101562 L 85.667969 55.054688 C 83.980469 55.054688 82.941406 53.210938 83.816406 51.773438 C 85.285156 49.371094 86.128906 46.546875 86.128906 43.527344 C 86.128906 34.625 78.804688 27.433594 69.855469 27.652344 C 61.5 27.855469 54.667969 34.613281 54.382812 42.964844 "/></g></g></svg>