<svg xmlns="http://www.w3.org/2000/svg" xmlns:xlink="http://www.w3.org/1999/xlink" width="200" zoomAndPan="magnify" viewBox="0 0 150 149.999998" height="200" preserveAspectRatio="xMidYMid meet" version="1.2"><defs><clipPath id="15df37d7fa"><path d="M 28.394531 28.394531 L 121.394531 28.394531 L 121.394531 121.394531 L 28.394531 121.394531 Z M 28.394531 28.394531 "/></clipPath></defs><g id="77b18b60fc"><g clip-rule="nonzero" clip-path="url(#15df37d7fa)"><path style=" stroke:none;fill-rule:nonzero;fill:#742c8f;fill-opacity:1;" d="M 40.429688 59.167969 C 49.242188 59.167969 56.363281 66.421875 56.148438 75.285156 C 55.949219 83.535156 49.289062 90.296875 41.042969 90.609375 C 37.613281 90.738281 34.421875 89.769531 31.785156 88.027344 C 30.371094 87.09375 28.488281 88.144531 28.488281 89.835938 L 28.535156 119.253906 C 28.539062 120.4375 29.5 121.398438 30.683594 121.394531 L 119.253906 121.253906 C 120.4375 121.25 121.398438 120.289062 121.394531 119.105469 L 121.347656 89.675781 C 121.34375 87.96875 119.441406 86.941406 118.023438 87.894531 C 115.53125 89.5625 112.535156 90.539062 109.3125 90.546875 C 100.636719 90.558594 93.59375 83.539062 93.582031 74.863281 C 93.566406 66.191406 100.589844 59.148438 109.261719 59.132812 C 112.488281 59.128906 115.484375 60.097656 117.980469 61.757812 C 119.402344 62.707031 121.304688 61.675781 121.300781 59.964844 L 121.253906 30.535156 C 121.25 29.351562 120.292969 28.394531 119.109375 28.394531 L 89.566406 28.441406 C 87.851562 28.445312 86.824219 30.367188 87.792969 31.78125 C 89.566406 34.371094 90.574219 37.527344 90.488281 40.921875 C 90.28125 49.136719 83.582031 55.828125 75.371094 56.019531 C 66.640625 56.226562 59.5 49.207031 59.5 40.523438 C 59.5 37.300781 60.480469 34.308594 62.164062 31.832031 C 63.128906 30.40625 62.105469 28.484375 60.386719 28.488281 L 30.535156 28.535156 C 29.351562 28.539062 28.394531 29.5 28.394531 30.683594 L 28.441406 59.992188 C 28.445312 61.695312 30.339844 62.722656 31.757812 61.78125 C 34.242188 60.128906 37.222656 59.167969 40.429688 59.167969 "/></g></g></svg>