<svg xmlns="http://www.w3.org/2000/svg" xmlns:xlink="http://www.w3.org/1999/xlink" width="200" zoomAndPan="magnify" viewBox="0 0 150 149.999998" height="200" preserveAspectRatio="xMidYMid meet" version="1.2"><defs><clipPath id="dd75555693"><path d="M 1.382812 1.535156 L 148.382812 1.535156 L 148.382812 148.535156 L 1.382812 148.535156 Z M 1.382812 1.535156 "/></clipPath></defs><g id="d1b37a518e"><g clip-rule="nonzero" clip-path="url(#dd75555693)"><path style=" stroke:none;fill-rule:nonzero;fill:#088f9d;fill-opacity:1;" d="M 17.375 59.058594 C 20.128906 59.058594 22.71875 59.765625 24.972656 61.003906 C 26.398438 61.789062 28.140625 60.730469 28.136719 59.105469 L 28.09375 30.480469 C 28.089844 29.289062 29.054688 28.328125 30.242188 28.324219 L 59.09375 28.277344 C 60.726562 28.277344 61.78125 26.511719 60.972656 25.089844 C 59.675781 22.804688 58.933594 20.164062 58.929688 17.351562 C 58.914062 8.648438 65.964844 1.582031 74.675781 1.566406 C 83.386719 1.554688 90.460938 8.597656 90.476562 17.300781 C 90.480469 20.117188 89.742188 22.757812 88.453125 25.046875 C 87.652344 26.472656 88.710938 28.230469 90.34375 28.226562 L 119.195312 28.183594 C 119.4375 28.183594 119.667969 28.222656 119.886719 28.296875 C 120.828125 28.523438 121.527344 29.371094 121.53125 30.382812 L 121.574219 59.191406 C 121.578125 60.832031 123.339844 61.859375 124.777344 61.066406 C 127.238281 59.707031 130.101562 58.988281 133.140625 59.128906 C 141.371094 59.511719 147.980469 66.285156 148.171875 74.515625 C 148.378906 83.398438 141.230469 90.667969 132.386719 90.667969 C 129.632812 90.667969 127.046875 89.960938 124.792969 88.722656 C 123.367188 87.9375 121.621094 88.992188 121.625 90.621094 L 121.671875 119.246094 C 121.671875 120.433594 120.710938 121.398438 119.523438 121.402344 L 90.671875 121.449219 C 89.039062 121.449219 87.984375 123.214844 88.792969 124.636719 C 90.089844 126.917969 90.832031 129.558594 90.835938 132.375 C 90.851562 141.078125 83.800781 148.144531 75.089844 148.15625 C 66.375 148.171875 59.304688 141.128906 59.289062 132.425781 C 59.285156 129.609375 60.019531 126.96875 61.308594 124.679688 C 62.113281 123.253906 61.054688 121.496094 59.417969 121.496094 L 30.570312 121.542969 C 30.328125 121.542969 30.097656 121.503906 29.878906 121.429688 C 28.9375 121.203125 28.238281 120.355469 28.234375 119.34375 L 28.1875 90.535156 C 28.1875 88.894531 26.425781 87.867188 24.988281 88.660156 C 22.527344 90.019531 19.664062 90.738281 16.621094 90.597656 C 8.394531 90.214844 1.785156 83.441406 1.59375 75.210938 C 1.386719 66.328125 8.53125 59.058594 17.375 59.058594 "/></g></g></svg>