<svg xmlns="http://www.w3.org/2000/svg" xmlns:xlink="http://www.w3.org/1999/xlink" width="200" zoomAndPan="magnify" viewBox="0 0 150 149.999998" height="200" preserveAspectRatio="xMidYMid meet" version="1.2"><defs><clipPath id="66d3bc46af"><path d="M 15 15.339844 L 135 15.339844 L 135 135 L 15 135 Z M 15 15.339844 "/></clipPath></defs><g id="dd77b65791"><g clip-rule="nonzero" clip-path="url(#66d3bc46af)"><path style=" stroke:none;fill-rule:nonzero;fill:#e11172;fill-opacity:1;" d="M 119.648438 46.078125 C 116.484375 45.96875 113.523438 46.800781 111.015625 48.3125 C 109.582031 49.175781 107.75 48.167969 107.753906 46.492188 L 107.800781 17.652344 C 107.800781 16.472656 106.84375 15.511719 105.664062 15.511719 L 17.28125 15.371094 C 16.101562 15.367188 15.140625 16.324219 15.140625 17.503906 L 15 105.863281 C 15 107.042969 15.953125 108 17.132812 108.003906 L 45.800781 108.050781 C 47.425781 108.050781 48.472656 109.804688 47.667969 111.21875 C 46.378906 113.492188 45.640625 116.117188 45.636719 118.914062 C 45.621094 127.566406 52.628906 134.59375 61.285156 134.605469 C 69.9375 134.621094 76.96875 127.617188 76.980469 118.964844 C 76.984375 116.164062 76.253906 113.539062 74.972656 111.261719 C 74.175781 109.847656 75.226562 108.097656 76.851562 108.097656 L 105.515625 108.144531 C 106.699219 108.148438 107.65625 107.191406 107.65625 106.011719 L 107.703125 76.988281 C 107.707031 75.324219 109.527344 74.296875 110.949219 75.160156 C 113.324219 76.609375 116.109375 77.445312 119.097656 77.445312 C 127.890625 77.445312 134.996094 70.207031 134.78125 61.367188 C 134.578125 53.113281 127.898438 46.363281 119.648438 46.078125 "/></g></g></svg>