<svg xmlns="http://www.w3.org/2000/svg" xmlns:xlink="http://www.w3.org/1999/xlink" width="200" zoomAndPan="magnify" viewBox="0 0 150 149.999998" height="200" preserveAspectRatio="xMidYMid meet" version="1.2"><defs><clipPath id="3123957c89"><path d="M 28.261719 15 L 122 15 L 122 135 L 28.261719 135 Z M 28.261719 15 "/></clipPath></defs><g id="092422fa3b"><g clip-rule="nonzero" clip-path="url(#3123957c89)"><path style=" stroke:none;fill-rule:nonzero;fill:#088f9d;fill-opacity:1;" d="M 40.445312 77.492188 C 37.210938 77.5 34.199219 76.527344 31.695312 74.859375 C 30.269531 73.910156 28.359375 74.945312 28.363281 76.660156 L 28.410156 106.195312 C 28.414062 107.382812 29.375 108.34375 30.566406 108.339844 L 59.398438 108.296875 C 61.035156 108.292969 62.09375 110.054688 61.289062 111.476562 C 60 113.765625 59.265625 116.410156 59.269531 119.222656 C 59.285156 127.929688 66.351562 134.972656 75.058594 134.960938 C 83.765625 134.945312 90.8125 127.878906 90.800781 119.175781 C 90.796875 116.359375 90.054688 113.71875 88.757812 111.433594 C 87.949219 110.011719 89 108.25 90.636719 108.246094 L 119.472656 108.199219 C 120.660156 108.199219 121.621094 107.234375 121.617188 106.046875 L 121.476562 17.164062 C 121.476562 15.976562 120.511719 15.015625 119.320312 15.015625 L 30.414062 15.15625 C 29.230469 15.160156 28.265625 16.125 28.269531 17.3125 L 28.316406 46.847656 C 28.320312 48.558594 30.230469 49.589844 31.652344 48.632812 C 34.152344 46.957031 37.160156 45.976562 40.398438 45.972656 C 49.105469 45.957031 56.171875 53.003906 56.1875 61.707031 C 56.199219 70.414062 49.152344 77.480469 40.445312 77.492188 "/></g></g></svg>