<svg xmlns="http://www.w3.org/2000/svg" xmlns:xlink="http://www.w3.org/1999/xlink" width="500" zoomAndPan="magnify" viewBox="0 0 375 187.499995" height="250" preserveAspectRatio="xMidYMid meet" version="1.2"><defs><clipPath id="08f3ead276"><path d="M 5 19 L 372 19 L 372 135 L 5 135 Z M 5 19 "/></clipPath><clipPath id="759989c0ab"><path d="M 21.625 -22.777344 L 392.117188 58.214844 L 364.957031 182.441406 L -5.53125 101.449219 Z M 21.625 -22.777344 "/></clipPath><clipPath id="a4a8358d16"><path d="M 21.625 -22.777344 L 392.117188 58.214844 L 364.957031 182.441406 L -5.53125 101.449219 Z M 21.625 -22.777344 "/></clipPath></defs><g id="dde4396537"><g clip-rule="nonzero" clip-path="url(#08f3ead276)"><g clip-rule="nonzero" clip-path="url(#759989c0ab)"><g clip-rule="nonzero" clip-path="url(#a4a8358d16)"><path style=" stroke:none;fill-rule:nonzero;fill:#088f9d;fill-opacity:1;" d="M 53.84375 114.21875 C 44.394531 107.613281 29.375 96.429688 21.023438 85.59375 C 12.667969 74.753906 10.082031 64.847656 12.179688 56.523438 C 14.273438 48.195312 20.382812 41.898438 29.933594 38.535156 C 39.484375 35.171875 51.925781 35.675781 62.667969 39.625 C 73.410156 43.574219 82.511719 50.675781 93.46875 60.644531 C 104.425781 70.613281 116.992188 81.894531 130.976562 92.597656 C 144.960938 103.300781 160.257812 111.90625 176.757812 116.449219 C 193.257812 120.996094 210.769531 119.828125 225.660156 113.644531 C 240.546875 107.460938 250.972656 100.660156 259.246094 93.433594 C 267.523438 86.210938 273.679688 78.824219 277.75 71.582031 C 281.824219 64.34375 283.816406 57.46875 283.636719 51.242188 C 283.460938 45.015625 280.953125 39.785156 276.5 36.4375 C 272.046875 33.089844 267.019531 32.15625 262.253906 33.191406 C 257.488281 34.226562 253.207031 36.597656 249.5 39.664062 C 245.792969 42.730469 242.742188 46.078125 240.488281 49.21875 C 238.230469 52.359375 236.875 55.019531 238.941406 51.617188 C 241.007812 48.21875 238.328125 39.957031 233.957031 33.574219 C 229.585938 27.1875 223.957031 22.84375 217.628906 20.765625 C 211.304688 18.6875 204.773438 19.074219 198.777344 22.105469 C 192.78125 25.136719 187.921875 30.8125 184.804688 40.71875 C 181.683594 50.628906 183.476562 63.230469 190.875 75.277344 C 198.273438 87.324219 210.550781 98.367188 227.007812 107.882812 C 243.460938 117.402344 263.585938 124.921875 286.757812 129.730469 C 309.929688 134.535156 335.617188 135.484375 355.691406 133.949219 C 375.765625 132.410156 375.765625 132.410156 362.394531 132.753906 C 362.394531 132.753906 335.691406 131.394531 311.382812 128.125 C 287.074219 124.851562 265.414062 119.144531 247.078125 111.1875 C 228.742188 103.226562 214.261719 93.574219 204.289062 82.976562 C 194.316406 72.378906 189.292969 61.492188 189.589844 50.839844 C 189.886719 40.1875 193 34.144531 197.125 30.382812 C 201.246094 26.621094 205.953125 25.019531 210.921875 25.375 C 215.886719 25.734375 220.785156 28.007812 225.109375 32.171875 C 229.433594 36.332031 232.742188 42.332031 234.511719 50.375 C 236.28125 58.414062 242.488281 57.347656 243.816406 55.113281 C 245.140625 52.875 247.386719 49.984375 250.285156 47.074219 C 253.183594 44.167969 256.515625 41.683594 259.972656 40.121094 C 263.433594 38.5625 266.777344 38.210938 270.023438 39.363281 C 273.269531 40.511719 275.972656 43.25 277.140625 47.191406 C 278.3125 51.128906 277.851562 56.316406 275.496094 62.417969 C 273.144531 68.523438 268.796875 75.214844 262.375 82.089844 C 255.953125 88.96875 247.421875 95.738281 236.800781 102.007812 C 226.179688 108.277344 209.550781 113.890625 193.773438 113.0625 C 177.992188 112.238281 162.847656 106.425781 148.53125 97.332031 C 134.21875 88.238281 120.957031 77.308594 108.972656 66.390625 C 96.992188 55.476562 86.417969 46.042969 77.207031 39.886719 C 67.996094 33.726562 52.878906 29.691406 39.855469 30.695312 C 26.832031 31.695312 16.753906 37.035156 10.808594 45.738281 C 4.863281 54.441406 4.035156 65.441406 9.164062 77.246094 C 14.292969 89.046875 26.027344 100.472656 34.699219 104.933594 C 53.75 114.410156 43.46875 109.203125 53.84375 114.21875 Z M 53.84375 114.21875 "/></g></g></g></g></svg>