<svg xmlns="http://www.w3.org/2000/svg" xmlns:xlink="http://www.w3.org/1999/xlink" width="100" zoomAndPan="magnify" viewBox="0 0 75 74.999997" height="100" preserveAspectRatio="xMidYMid meet" version="1.2"><defs><clipPath id="acb131fb2a"><path d="M 11.558594 7.5 L 67.808594 7.5 L 67.808594 63.75 L 11.558594 63.75 Z M 11.558594 7.5 "/></clipPath></defs><g id="be85f70a05"><g clip-rule="nonzero" clip-path="url(#acb131fb2a)"><path style=" stroke:none;fill-rule:nonzero;fill:#088f9d;fill-opacity:1;" d="M 61.203125 35.550781 C 59.503906 35.441406 57.929688 36.003906 56.726562 36.972656 C 55.886719 37.660156 54.636719 37.035156 54.636719 35.960938 L 54.636719 21.851562 C 54.636719 21.140625 54.054688 20.558594 53.34375 20.558594 L 38.871094 20.558594 C 37.75 20.558594 37.191406 19.269531 37.921875 18.40625 C 38.933594 17.242188 39.515625 15.714844 39.472656 14.054688 C 39.410156 10.738281 36.738281 7.960938 33.421875 7.746094 C 29.671875 7.507812 26.550781 10.480469 26.550781 14.183594 C 26.550781 15.800781 27.132812 17.265625 28.101562 18.386719 C 28.832031 19.226562 28.253906 20.539062 27.132812 20.539062 L 12.851562 20.539062 C 12.140625 20.539062 11.558594 21.121094 11.558594 21.832031 L 11.558594 35.960938 C 11.558594 37.035156 12.832031 37.660156 13.671875 36.972656 C 14.878906 35.980469 16.472656 35.421875 18.171875 35.527344 C 21.402344 35.722656 24.03125 38.371094 24.203125 41.601562 C 24.417969 45.351562 21.488281 48.453125 17.785156 48.453125 C 16.234375 48.453125 14.792969 47.914062 13.691406 46.988281 C 12.851562 46.296875 11.582031 46.902344 11.582031 47.976562 L 11.582031 62.320312 C 11.582031 63.03125 12.164062 63.613281 12.875 63.613281 L 27.132812 63.613281 C 28.230469 63.613281 28.832031 62.320312 28.101562 61.480469 C 27.089844 60.296875 26.507812 58.789062 26.574219 57.109375 C 26.679688 53.859375 29.222656 51.144531 32.453125 50.863281 C 36.285156 50.542969 39.472656 53.578125 39.472656 57.347656 C 39.472656 58.960938 38.890625 60.382812 37.921875 61.523438 C 37.210938 62.34375 37.835938 63.636719 38.914062 63.636719 L 53.34375 63.636719 C 54.054688 63.636719 54.636719 63.054688 54.636719 62.34375 L 54.636719 48.042969 C 54.636719 46.964844 55.886719 46.339844 56.726562 47.03125 C 57.84375 47.933594 59.246094 48.472656 60.796875 48.472656 C 64.5 48.472656 67.492188 45.351562 67.234375 41.582031 C 67.019531 38.351562 64.414062 35.765625 61.203125 35.550781 Z M 61.203125 35.550781 "/></g></g></svg>