<svg xmlns="http://www.w3.org/2000/svg" xmlns:xlink="http://www.w3.org/1999/xlink" width="500" zoomAndPan="magnify" viewBox="0 0 375 187.499995" height="250" preserveAspectRatio="xMidYMid meet" version="1.2"><defs><clipPath id="e2082ec3a6"><path d="M 15 57 L 366 57 L 366 161 L 15 161 Z M 15 57 "/></clipPath><clipPath id="69837a76b5"><path d="M 0.5 79.40625 L 354.808594 12.667969 L 375.023438 119.992188 L 20.714844 186.730469 Z M 0.5 79.40625 "/></clipPath><clipPath id="62f01921c1"><path d="M 0.5 79.40625 L 354.808594 12.667969 L 375.023438 119.992188 L 20.714844 186.730469 Z M 0.5 79.40625 "/></clipPath></defs><g id="0544fb707c"><g clip-rule="nonzero" clip-path="url(#e2082ec3a6)"><g clip-rule="nonzero" clip-path="url(#69837a76b5)"><g clip-rule="nonzero" clip-path="url(#62f01921c1)"><path style=" stroke:none;fill-rule:nonzero;fill:#088f9d;fill-opacity:1;" d="M 147.9375 106.898438 L 148.484375 106.785156 C 155.976562 105.195312 166.121094 104.839844 178.910156 105.71875 L 178.5 110.097656 C 178.003906 113.488281 176.773438 116.941406 174.800781 120.453125 C 172.6875 124.085938 169.726562 127.699219 165.925781 131.292969 C 159.320312 137.683594 151.59375 141.878906 142.746094 143.875 C 136.292969 145.234375 131.851562 144.84375 129.425781 142.695312 C 126.699219 139.738281 125.703125 135.242188 126.445312 129.203125 C 127.433594 123.019531 129.679688 118.074219 133.179688 114.363281 C 136.1875 110.835938 141.109375 108.347656 147.9375 106.898438 M 102.617188 60.144531 L 100.078125 60.71875 C 59.328125 70.964844 31.246094 104.359375 15.828125 160.902344 C 32.765625 125.324219 47.710938 101.667969 60.660156 89.9375 C 74.75 75.753906 92.46875 67.480469 113.816406 65.121094 C 146.375 61.933594 167.832031 73.246094 178.183594 99.0625 C 165.007812 98.179688 154.210938 98.695312 145.789062 100.605469 C 138.582031 102.128906 132.78125 105.226562 128.386719 109.890625 C 122.40625 116.691406 119.488281 124.65625 119.632812 133.777344 C 119.980469 142.265625 123.449219 147.78125 130.03125 150.324219 C 141.304688 152.691406 153.367188 149.160156 166.21875 139.730469 C 179.03125 129.285156 185.449219 118.152344 185.476562 106.335938 C 190.058594 106.863281 195.15625 107.820312 200.765625 109.210938 C 248.59375 122.652344 272.851562 129.101562 273.539062 128.558594 C 293.171875 131.84375 307.878906 132.179688 317.652344 129.5625 C 333.5 125.375 344.710938 119.007812 351.289062 110.464844 C 359.550781 100.652344 364.363281 87.390625 365.738281 70.683594 C 360.339844 90.347656 352.832031 103.777344 343.214844 110.96875 C 338.847656 114.851562 332.132812 118.25 323.0625 121.164062 C 312.941406 124.257812 304.402344 125.402344 297.445312 124.605469 C 289.996094 124.296875 280.828125 123.132812 269.949219 121.113281 C 266.480469 120.5625 244.257812 114.527344 203.28125 103.007812 C 195.558594 101.136719 189.472656 100.015625 185.019531 99.644531 C 180.996094 82.605469 168.761719 69.921875 148.3125 61.589844 C 135.855469 57.300781 120.625 56.820312 102.617188 60.144531 "/></g></g></g></g></svg>