<svg xmlns="http://www.w3.org/2000/svg" xmlns:xlink="http://www.w3.org/1999/xlink" width="200" zoomAndPan="magnify" viewBox="0 0 150 149.999998" height="200" preserveAspectRatio="xMidYMid meet" version="1.2"><defs><clipPath id="bd7382edd5"><path d="M 107.777344 41.054688 L 118.929688 41.054688 L 118.929688 68.277344 L 107.777344 68.277344 Z M 107.777344 41.054688 "/></clipPath></defs><g id="3deb546940"><path style=" stroke:none;fill-rule:nonzero;fill:#fcfcfc;fill-opacity:1;" d="M 135.910156 68.21875 L 76.933594 23.007812 C 75.359375 21.800781 73.132812 21.800781 71.554688 23.007812 L 12.550781 68.21875 C 11.046875 69.382812 10.457031 71.355469 11.0625 73.15625 C 11.679688 74.953125 13.359375 76.164062 15.246094 76.164062 L 28.054688 76.164062 L 28.054688 123.417969 C 28.054688 125.867188 30.03125 127.839844 32.476562 127.839844 L 116.011719 127.839844 C 118.457031 127.839844 120.433594 125.867188 120.433594 123.417969 L 120.433594 76.164062 L 133.226562 76.164062 C 135.128906 76.164062 136.808594 74.953125 137.414062 73.15625 C 138.003906 71.355469 137.398438 69.382812 135.910156 68.21875 Z M 135.910156 68.21875 "/><g clip-rule="nonzero" clip-path="url(#bd7382edd5)"><path style=" stroke:none;fill-rule:nonzero;fill:#fcfcfc;fill-opacity:1;" d="M 107.777344 41.054688 L 118.929688 41.054688 L 118.929688 68.285156 L 107.777344 68.285156 Z M 107.777344 41.054688 "/></g></g></svg>