<svg xmlns="http://www.w3.org/2000/svg" xmlns:xlink="http://www.w3.org/1999/xlink" width="500" zoomAndPan="magnify" viewBox="0 0 375 187.499995" height="250" preserveAspectRatio="xMidYMid meet" version="1.2"><defs><clipPath id="4bdde15942"><path d="M 3 9 L 372 9 L 372 174 L 3 174 Z M 3 9 "/></clipPath><clipPath id="d918ea3c43"><path d="M -7.863281 138.019531 L 327.320312 -48.796875 L 371.746094 30.914062 L 36.566406 217.730469 Z M -7.863281 138.019531 "/></clipPath><clipPath id="ffa6fb7818"><path d="M -7.863281 138.019531 L 327.320312 -48.796875 L 371.746094 30.914062 L 36.566406 217.730469 Z M -7.863281 138.019531 "/></clipPath></defs><g id="1090a336ee"><g clip-rule="nonzero" clip-path="url(#4bdde15942)"><g clip-rule="nonzero" clip-path="url(#d918ea3c43)"><g clip-rule="nonzero" clip-path="url(#ffa6fb7818)"><path style=" stroke:none;fill-rule:nonzero;fill:#e11172;fill-opacity:1;" d="M 3.621094 157.398438 C 6.125 158.964844 8.78125 160.332031 11.464844 161.59375 C 14.160156 162.847656 16.898438 164 19.695312 165.011719 C 20.386719 165.277344 21.089844 165.519531 21.792969 165.753906 C 22.496094 165.988281 23.191406 166.246094 23.902344 166.464844 C 25.320312 166.894531 26.730469 167.359375 28.171875 167.730469 L 30.320312 168.316406 L 32.480469 168.832031 C 33.917969 169.203125 35.378906 169.457031 36.832031 169.757812 C 48.472656 172.023438 60.492188 172.304688 72.167969 170.445312 C 78.007812 169.527344 83.757812 168.089844 89.359375 166.222656 L 93.523438 164.714844 C 94.222656 164.480469 94.890625 164.15625 95.574219 163.878906 L 97.613281 163.015625 C 98.289062 162.722656 98.976562 162.449219 99.648438 162.140625 L 101.636719 161.167969 L 103.628906 160.199219 C 104.292969 159.875 104.960938 159.5625 105.597656 159.191406 L 109.472656 157.046875 C 109.796875 156.867188 110.121094 156.695312 110.4375 156.503906 L 111.375 155.917969 L 113.253906 154.746094 C 115.773438 153.210938 118.230469 151.5625 120.621094 149.828125 C 123.011719 148.09375 125.359375 146.300781 127.617188 144.402344 C 128.765625 143.476562 129.863281 142.484375 130.976562 141.523438 C 132.058594 140.527344 133.164062 139.550781 134.21875 138.519531 C 136.359375 136.492188 138.410156 134.378906 140.382812 132.191406 C 142.359375 130.011719 144.261719 127.757812 146.050781 125.425781 C 147.847656 123.101562 149.558594 120.707031 151.164062 118.246094 C 152.757812 115.78125 154.246094 113.253906 155.617188 110.664062 C 158.355469 105.488281 160.625 100.0625 162.203125 94.460938 C 163.769531 88.871094 164.691406 83.078125 164.390625 77.394531 C 164.300781 75.980469 164.167969 74.570312 163.902344 73.199219 C 163.652344 71.824219 163.3125 70.46875 162.839844 69.183594 C 162.371094 67.902344 161.8125 66.65625 161.105469 65.53125 C 160.394531 64.40625 159.5625 63.378906 158.617188 62.503906 C 157.667969 61.628906 156.597656 60.902344 155.4375 60.347656 C 154.273438 59.796875 153.015625 59.445312 151.722656 59.242188 C 150.425781 59.039062 149.082031 58.980469 147.730469 59.097656 L 147.226562 59.128906 L 146.714844 59.199219 C 146.378906 59.242188 146.039062 59.277344 145.699219 59.332031 C 145.023438 59.46875 144.34375 59.566406 143.667969 59.757812 C 142.308594 60.0625 141 60.507812 139.726562 61.027344 C 138.453125 61.550781 137.230469 62.167969 136.082031 62.902344 C 133.78125 64.355469 131.746094 66.203125 130.125 68.375 C 126.882812 72.695312 125.3125 78.285156 125.925781 83.589844 C 126.230469 86.234375 127.078125 88.792969 128.46875 90.972656 C 129.855469 93.15625 131.777344 94.945312 134.042969 96.160156 C 136.3125 97.371094 138.902344 98.054688 141.582031 98.203125 C 144.265625 98.378906 147.023438 98.09375 149.75 97.488281 C 152.480469 96.898438 155.175781 95.996094 157.800781 94.886719 C 158.453125 94.601562 159.132812 94.335938 159.742188 94.027344 L 160.679688 93.574219 C 160.992188 93.421875 161.300781 93.242188 161.613281 93.078125 L 162.542969 92.582031 L 163.460938 92.039062 C 164.082031 91.683594 164.6875 91.308594 165.296875 90.917969 C 170.164062 87.828125 174.847656 84.214844 179.484375 80.539062 C 184.125 76.863281 188.714844 73.070312 193.332031 69.292969 C 197.957031 65.523438 202.585938 61.738281 207.300781 58.039062 C 212.011719 54.34375 216.769531 50.679688 221.632812 47.152344 C 226.5 43.628906 231.453125 40.207031 236.515625 36.941406 C 246.664062 30.453125 257.25 24.527344 268.441406 19.847656 C 274.035156 17.519531 279.769531 15.5 285.628906 13.886719 C 287.09375 13.472656 288.578125 13.136719 290.046875 12.757812 C 291.535156 12.429688 293.015625 12.097656 294.507812 11.808594 C 297.503906 11.265625 300.507812 10.789062 303.542969 10.496094 C 309.59375 9.882812 315.710938 9.777344 321.769531 10.324219 C 327.824219 10.863281 333.816406 12.039062 339.605469 13.808594 C 345.390625 15.597656 350.984375 17.941406 356.289062 20.792969 C 358.945312 22.210938 361.515625 23.765625 364.03125 25.398438 C 365.265625 26.246094 366.523438 27.066406 367.738281 27.945312 L 371.335938 30.625 C 371.464844 30.722656 371.492188 30.90625 371.398438 31.035156 C 371.304688 31.160156 371.132812 31.191406 371.003906 31.105469 L 370.996094 31.097656 L 367.242188 28.683594 C 365.984375 27.894531 364.679688 27.171875 363.40625 26.417969 C 360.824219 24.957031 358.199219 23.578125 355.511719 22.339844 C 350.144531 19.851562 344.589844 17.820312 338.886719 16.386719 C 327.5 13.425781 315.597656 12.992188 304.035156 14.585938 C 292.449219 16.191406 281.191406 19.796875 270.492188 24.597656 C 265.136719 26.996094 259.886719 29.648438 254.765625 32.550781 C 249.640625 35.453125 244.632812 38.570312 239.722656 41.84375 C 234.796875 45.097656 229.96875 48.507812 225.210938 52.03125 C 220.445312 55.542969 215.738281 59.148438 211.078125 62.832031 C 201.726562 70.160156 192.566406 77.765625 183.058594 85.109375 C 178.285156 88.757812 173.453125 92.371094 168.195312 95.589844 C 167.535156 95.996094 166.875 96.390625 166.191406 96.769531 L 165.171875 97.34375 L 164.121094 97.882812 C 163.769531 98.0625 163.429688 98.246094 163.066406 98.417969 L 161.980469 98.917969 C 161.25 99.269531 160.539062 99.53125 159.816406 99.832031 C 156.929688 100.992188 153.929688 101.941406 150.816406 102.574219 C 147.710938 103.214844 144.476562 103.515625 141.207031 103.257812 C 137.945312 103.023438 134.628906 102.136719 131.664062 100.488281 C 128.691406 98.84375 126.144531 96.402344 124.378906 93.515625 C 122.597656 90.636719 121.589844 87.367188 121.257812 84.085938 C 120.585938 77.511719 122.589844 70.84375 126.554688 65.667969 C 128.539062 63.078125 131.019531 60.886719 133.777344 59.191406 C 135.15625 58.335938 136.609375 57.621094 138.105469 57.03125 C 139.601562 56.441406 141.136719 55.945312 142.691406 55.613281 C 143.460938 55.410156 144.257812 55.300781 145.042969 55.15625 C 145.441406 55.097656 145.847656 55.058594 146.246094 55.011719 L 146.847656 54.945312 L 147.457031 54.910156 C 149.078125 54.800781 150.738281 54.878906 152.382812 55.15625 C 154.023438 55.4375 155.664062 55.917969 157.191406 56.664062 C 158.71875 57.40625 160.132812 58.394531 161.359375 59.554688 C 162.585938 60.714844 163.628906 62.042969 164.488281 63.453125 C 165.351562 64.867188 166.003906 66.367188 166.535156 67.886719 C 167.070312 69.410156 167.441406 70.964844 167.699219 72.523438 C 167.980469 74.085938 168.109375 75.652344 168.191406 77.214844 C 168.433594 83.46875 167.359375 89.597656 165.644531 95.457031 C 163.914062 101.320312 161.480469 106.933594 158.578125 112.261719 C 157.125 114.925781 155.550781 117.519531 153.875 120.042969 C 152.191406 122.558594 150.402344 125.003906 148.523438 127.375 C 146.648438 129.75 144.675781 132.039062 142.617188 134.25 C 140.566406 136.46875 138.4375 138.609375 136.21875 140.65625 C 135.125 141.695312 133.980469 142.675781 132.851562 143.675781 C 131.695312 144.648438 130.558594 145.636719 129.371094 146.566406 C 127.03125 148.464844 124.605469 150.257812 122.144531 151.988281 C 119.679688 153.722656 117.152344 155.359375 114.558594 156.886719 L 112.625 158.050781 L 111.65625 158.632812 C 111.332031 158.820312 110.992188 158.988281 110.660156 159.167969 L 106.675781 161.296875 C 106.019531 161.667969 105.332031 161.972656 104.644531 162.292969 L 102.601562 163.25 L 100.554688 164.207031 C 99.867188 164.515625 99.164062 164.777344 98.464844 165.066406 L 96.371094 165.910156 C 95.667969 166.183594 94.984375 166.503906 94.269531 166.730469 L 89.996094 168.199219 C 84.253906 170.015625 78.375 171.382812 72.414062 172.226562 C 60.5 173.929688 48.304688 173.453125 36.566406 170.972656 C 35.105469 170.636719 33.632812 170.347656 32.1875 169.949219 L 30.011719 169.390625 L 27.851562 168.761719 C 26.410156 168.359375 24.992188 167.863281 23.566406 167.402344 C 22.855469 167.167969 22.15625 166.898438 21.449219 166.648438 C 20.746094 166.398438 20.042969 166.140625 19.347656 165.863281 C 16.550781 164.792969 13.808594 163.578125 11.121094 162.265625 C 8.433594 160.941406 5.796875 159.527344 3.277344 157.882812 C 3.140625 157.796875 3.101562 157.613281 3.1875 157.476562 C 3.277344 157.339844 3.457031 157.304688 3.589844 157.386719 Z M 3.621094 157.398438 "/></g></g></g></g></svg>