<svg xmlns="http://www.w3.org/2000/svg" xmlns:xlink="http://www.w3.org/1999/xlink" width="500" zoomAndPan="magnify" viewBox="0 0 375 187.499995" height="250" preserveAspectRatio="xMidYMid meet" version="1.2"><defs><clipPath id="5e4dca6abc"><path d="M 10 46 L 367 46 L 367 146 L 10 146 Z M 10 46 "/></clipPath><clipPath id="28dea50a46"><path d="M 13.210938 29.9375 L 367.640625 39.335938 L 364.367188 162.714844 L 9.9375 153.316406 Z M 13.210938 29.9375 "/></clipPath><clipPath id="b93e764291"><path d="M 13.210938 29.9375 L 367.640625 39.335938 L 364.367188 162.714844 L 9.9375 153.316406 Z M 13.210938 29.9375 "/></clipPath></defs><g id="f38589a490"><g clip-rule="nonzero" clip-path="url(#5e4dca6abc)"><g clip-rule="nonzero" clip-path="url(#28dea50a46)"><g clip-rule="nonzero" clip-path="url(#b93e764291)"><path style=" stroke:none;fill-rule:nonzero;fill:#742c8f;fill-opacity:1;" d="M 366.179688 62.46875 C 365.214844 53.878906 358.832031 44.207031 350.234375 46.304688 C 343.617188 47.707031 339.539062 54.179688 336.789062 60.554688 C 336.546875 61.085938 336.300781 61.636719 336.074219 62.191406 C 337.539062 59.1875 339.15625 56.25 341.113281 53.605469 C 352.757812 38.925781 367.230469 54.011719 362.859375 70.058594 C 358.496094 83.066406 346.210938 92.765625 335.164062 96.414062 C 320.332031 102.121094 305.339844 99.339844 289.320312 96.160156 C 289.800781 93.941406 290.035156 91.714844 289.898438 89.539062 C 288.273438 65.269531 265.882812 50.554688 245.761719 49.519531 C 223.664062 47.742188 202.128906 56.578125 183.652344 69.730469 C 157.894531 87.75 136.871094 109.957031 109.507812 123.738281 C 78.691406 138.679688 43.660156 144.910156 10.285156 140.273438 C 45.382812 153.960938 96.652344 138.40625 127.839844 117.414062 C 153.574219 100.414062 174.054688 78.308594 200.628906 64.503906 C 221.648438 53.265625 250.710938 49.34375 269.796875 63.316406 C 281.019531 71.832031 286.898438 84.398438 284.9375 95.296875 C 280.917969 94.496094 276.839844 93.734375 272.679688 93.105469 C 269.050781 92.777344 265.144531 92.847656 261.84375 94.757812 C 255.355469 98.417969 253.597656 107.414062 258.617188 113.359375 C 268.867188 122.941406 281.820312 114.144531 287.296875 102.128906 C 290.796875 102.933594 294.257812 103.738281 297.472656 104.304688 C 321.730469 109.644531 348.878906 103.917969 362.535156 78.648438 C 365.128906 73.792969 366.875 68.144531 366.179688 62.46875 Z M 278.496094 107.417969 C 271.824219 114.457031 260.3125 113.324219 259.925781 104.65625 C 260.402344 96.78125 271.25 98.492188 283.050781 101.152344 C 281.933594 103.394531 280.453125 105.507812 278.496094 107.417969 Z M 278.496094 107.417969 "/></g></g></g></g></svg>