<svg xmlns="http://www.w3.org/2000/svg" xmlns:xlink="http://www.w3.org/1999/xlink" width="200" zoomAndPan="magnify" viewBox="0 0 150 149.999998" height="200" preserveAspectRatio="xMidYMid meet" version="1.2"><g id="7ff59045b9"><path style=" stroke:none;fill-rule:nonzero;fill:#ffae01;fill-opacity:1;" d="M 142.945312 65.234375 L 123.0625 45.351562 C 122.046875 44.335938 122.480469 42.574219 123.875 42.210938 C 126.867188 41.433594 129.636719 39.597656 131.59375 36.683594 C 134.417969 32.472656 134.535156 26.761719 131.832031 22.46875 C 127.09375 14.933594 117.019531 14.113281 111.125 20.015625 C 109.386719 21.746094 108.238281 23.84375 107.667969 26.0625 C 107.320312 27.429688 105.53125 27.820312 104.53125 26.820312 L 84.660156 6.949219 C 79.292969 1.582031 70.597656 1.582031 65.234375 6.949219 L 45.351562 26.828125 C 44.332031 27.847656 44.769531 29.609375 46.164062 29.972656 C 49.152344 30.75 51.925781 32.585938 53.878906 35.496094 C 56.707031 39.710938 56.824219 45.417969 54.121094 49.714844 C 49.382812 57.25 39.308594 58.066406 33.410156 52.167969 C 31.675781 50.433594 30.527344 48.339844 29.957031 46.121094 C 29.605469 44.75 27.820312 44.359375 26.820312 45.359375 L 6.949219 65.234375 C 1.582031 70.597656 1.582031 79.292969 6.949219 84.660156 L 26.828125 104.539062 C 27.84375 105.558594 27.410156 107.320312 26.015625 107.679688 C 23.023438 108.460938 20.253906 110.296875 18.300781 113.207031 C 15.472656 117.425781 15.359375 123.132812 18.058594 127.429688 C 22.800781 134.960938 32.871094 135.78125 38.769531 129.878906 C 40.507812 128.144531 41.652344 126.046875 42.222656 123.832031 C 42.574219 122.460938 44.359375 122.074219 45.359375 123.074219 L 65.234375 142.945312 C 70.597656 148.308594 79.292969 148.308594 84.660156 142.945312 L 104.53125 123.074219 C 105.53125 122.074219 105.144531 120.285156 103.773438 119.933594 C 101.554688 119.367188 99.457031 118.21875 97.722656 116.480469 C 91.824219 110.582031 92.640625 100.511719 100.175781 95.773438 C 104.472656 93.066406 110.183594 93.183594 114.394531 96.011719 C 117.308594 97.96875 119.144531 100.738281 119.921875 103.730469 C 120.285156 105.121094 122.046875 105.558594 123.0625 104.539062 L 142.945312 84.660156 C 148.308594 79.292969 148.308594 70.597656 142.945312 65.234375 "/></g></svg>