<svg xmlns="http://www.w3.org/2000/svg" xmlns:xlink="http://www.w3.org/1999/xlink" width="100" zoomAndPan="magnify" viewBox="0 0 75 74.999997" height="100" preserveAspectRatio="xMidYMid meet" version="1.2"><defs><clipPath id="04961d1e85"><path d="M 1.050781 7.6875 L 73.800781 7.6875 L 73.800781 66.9375 L 1.050781 66.9375 Z M 1.050781 7.6875 "/></clipPath></defs><g id="77e7fd8506"><g clip-rule="nonzero" clip-path="url(#04961d1e85)"><path style=" stroke:none;fill-rule:nonzero;fill:#fcfcfc;fill-opacity:1;" d="M 8.804688 51.625 C 10.1875 51.625 11.484375 51.265625 12.613281 50.636719 C 13.316406 50.242188 14.183594 50.765625 14.179688 51.574219 L 14.082031 65.835938 C 14.078125 66.421875 14.554688 66.902344 15.144531 66.902344 L 30.066406 66.871094 C 30.910156 66.867188 31.414062 65.925781 30.945312 65.226562 C 30.121094 63.996094 29.636719 62.515625 29.632812 60.917969 C 29.625 56.671875 33.035156 53.21875 37.265625 53.144531 C 41.5 53.21875 44.90625 56.671875 44.898438 60.917969 C 44.898438 62.515625 44.414062 63.996094 43.589844 65.226562 C 43.117188 65.925781 43.625 66.867188 44.46875 66.871094 L 59.214844 66.902344 C 59.800781 66.902344 60.273438 66.429688 60.277344 65.84375 L 60.332031 51.546875 C 60.335938 50.746094 61.199219 50.226562 61.898438 50.621094 C 63.03125 51.261719 64.335938 51.625 65.730469 51.625 C 70.019531 51.617188 73.488281 48.136719 73.484375 43.847656 C 73.476562 39.558594 69.992188 36.089844 65.703125 36.097656 C 64.316406 36.097656 63.015625 36.464844 61.890625 37.101562 C 61.1875 37.5 60.320312 36.980469 60.320312 36.175781 L 60.296875 21.976562 C 60.296875 21.390625 59.820312 20.917969 59.234375 20.917969 L 45.117188 20.941406 C 44.304688 20.941406 43.796875 20.070312 44.191406 19.359375 C 44.867188 18.148438 45.226562 16.738281 45.164062 15.238281 C 44.984375 11.175781 41.644531 7.90625 37.582031 7.8125 C 33.203125 7.710938 29.621094 11.230469 29.621094 15.585938 C 29.621094 16.960938 29.980469 18.253906 30.609375 19.375 C 31 20.078125 30.480469 20.941406 29.675781 20.941406 L 15.296875 20.917969 C 14.714844 20.917969 14.238281 21.390625 14.238281 21.976562 L 14.214844 36.175781 C 14.214844 36.980469 13.34375 37.5 12.644531 37.101562 C 11.519531 36.464844 10.21875 36.097656 8.828125 36.097656 C 4.539062 36.089844 1.058594 39.558594 1.050781 43.847656 C 1.042969 48.136719 4.515625 51.617188 8.804688 51.625 "/></g></g></svg>