<svg xmlns="http://www.w3.org/2000/svg" xmlns:xlink="http://www.w3.org/1999/xlink" width="100" zoomAndPan="magnify" viewBox="0 0 75 74.999997" height="100" preserveAspectRatio="xMidYMid meet" version="1.2"><defs><clipPath id="6aa4283080"><path d="M 7.5 6.472656 L 63.433594 6.472656 L 63.433594 62.722656 L 7.5 62.722656 Z M 7.5 6.472656 "/></clipPath></defs><g id="2486de46c2"><g clip-rule="nonzero" clip-path="url(#6aa4283080)"><path style=" stroke:none;fill-rule:nonzero;fill:#ffae01;fill-opacity:1;" d="M 13.789062 34.523438 C 15.492188 34.417969 17.0625 34.976562 18.269531 35.945312 C 19.109375 36.636719 20.359375 36.011719 20.359375 34.933594 L 20.359375 20.828125 C 20.359375 20.117188 20.941406 19.535156 21.648438 19.535156 L 36.125 19.535156 C 37.242188 19.535156 37.804688 18.242188 37.070312 17.378906 C 36.058594 16.21875 35.476562 14.6875 35.519531 13.03125 C 35.585938 9.714844 38.257812 6.933594 41.574219 6.71875 C 45.320312 6.480469 48.441406 9.453125 48.441406 13.160156 C 48.441406 14.773438 47.863281 16.238281 46.890625 17.359375 C 46.160156 18.199219 46.742188 19.511719 47.863281 19.511719 L 62.140625 19.511719 C 62.851562 19.511719 63.433594 20.09375 63.433594 20.804688 L 63.433594 34.933594 C 63.433594 36.011719 62.164062 36.636719 61.324219 35.945312 C 60.117188 34.957031 58.523438 34.394531 56.820312 34.503906 C 53.589844 34.695312 50.964844 37.347656 50.789062 40.578125 C 50.574219 44.324219 53.503906 47.425781 57.210938 47.425781 C 58.761719 47.425781 60.203125 46.886719 61.300781 45.960938 C 62.140625 45.273438 63.410156 45.875 63.410156 46.953125 L 63.410156 61.296875 C 63.410156 62.007812 62.832031 62.589844 62.121094 62.589844 L 47.863281 62.589844 C 46.761719 62.589844 46.160156 61.296875 46.894531 60.457031 C 47.90625 59.269531 48.488281 57.765625 48.421875 56.082031 C 48.3125 52.832031 45.773438 50.117188 42.542969 49.839844 C 38.707031 49.515625 35.519531 52.550781 35.519531 56.320312 C 35.519531 57.9375 36.101562 59.359375 37.070312 60.5 C 37.78125 61.316406 37.15625 62.609375 36.082031 62.609375 L 21.648438 62.609375 C 20.941406 62.609375 20.359375 62.027344 20.359375 61.316406 L 20.359375 47.015625 C 20.359375 45.941406 19.109375 45.316406 18.269531 46.003906 C 17.148438 46.910156 15.75 47.445312 14.199219 47.445312 C 10.492188 47.445312 7.5 44.324219 7.757812 40.554688 C 7.972656 37.324219 10.578125 34.738281 13.789062 34.523438 Z M 13.789062 34.523438 "/></g></g></svg>