<svg xmlns="http://www.w3.org/2000/svg" xmlns:xlink="http://www.w3.org/1999/xlink" width="200" zoomAndPan="magnify" viewBox="0 0 150 149.999998" height="200" preserveAspectRatio="xMidYMid meet" version="1.2"><defs><clipPath id="5ea2fc5986"><path d="M 30.089844 30.371094 L 131.339844 30.371094 L 131.339844 130.871094 L 30.089844 130.871094 Z M 30.089844 30.371094 "/></clipPath></defs><g id="025d892faa"><g clip-rule="nonzero" clip-path="url(#5ea2fc5986)"><path style=" stroke:none;fill-rule:nonzero;fill:#088f9d;fill-opacity:1;" d="M 118.285156 56.261719 C 115.617188 56.167969 113.121094 56.867188 111.011719 58.140625 C 109.800781 58.871094 108.257812 58.019531 108.257812 56.605469 L 108.296875 32.304688 C 108.300781 31.308594 107.496094 30.5 106.5 30.5 L 32.019531 30.378906 C 31.023438 30.378906 30.214844 31.183594 30.214844 32.179688 L 30.09375 106.640625 C 30.09375 107.636719 30.898438 108.445312 31.894531 108.445312 L 56.050781 108.484375 C 57.417969 108.484375 58.300781 109.964844 57.625 111.152344 C 56.539062 113.070312 55.917969 115.28125 55.914062 117.640625 C 55.902344 124.929688 61.804688 130.851562 69.097656 130.863281 C 76.390625 130.875 82.316406 124.972656 82.324219 117.679688 C 82.328125 115.324219 81.714844 113.109375 80.632812 111.191406 C 79.960938 109.996094 80.847656 108.523438 82.21875 108.527344 L 106.375 108.5625 C 107.371094 108.566406 108.175781 107.761719 108.179688 106.765625 L 108.21875 82.308594 C 108.21875 80.90625 109.753906 80.039062 110.953125 80.769531 C 112.953125 81.988281 115.300781 82.691406 117.816406 82.691406 C 125.230469 82.691406 131.21875 76.59375 131.035156 69.140625 C 130.867188 62.1875 125.238281 56.5 118.285156 56.261719 "/></g></g></svg>