<svg xmlns="http://www.w3.org/2000/svg" xmlns:xlink="http://www.w3.org/1999/xlink" width="200" zoomAndPan="magnify" viewBox="0 0 150 149.999998" height="200" preserveAspectRatio="xMidYMid meet" version="1.2"><defs><clipPath id="befab3a4a1"><path d="M 30.089844 30.371094 L 131.339844 30.371094 L 131.339844 130.871094 L 30.089844 130.871094 Z M 30.089844 30.371094 "/></clipPath><clipPath id="645ff94815"><path d="M 7 8.132812 L 108.011719 8.132812 L 108.011719 108.632812 L 7 108.632812 Z M 7 8.132812 "/></clipPath></defs><g id="edbb22d466"><g clip-rule="nonzero" clip-path="url(#befab3a4a1)"><path style=" stroke:none;fill-rule:nonzero;fill:#742c8f;fill-opacity:1;" d="M 118.285156 56.261719 C 115.617188 56.167969 113.121094 56.867188 111.011719 58.140625 C 109.800781 58.871094 108.257812 58.019531 108.257812 56.605469 L 108.296875 32.304688 C 108.300781 31.308594 107.496094 30.5 106.5 30.5 L 32.019531 30.378906 C 31.023438 30.378906 30.214844 31.183594 30.214844 32.179688 L 30.09375 106.640625 C 30.09375 107.636719 30.898438 108.445312 31.894531 108.445312 L 56.050781 108.484375 C 57.417969 108.484375 58.300781 109.964844 57.625 111.152344 C 56.539062 113.070312 55.917969 115.28125 55.914062 117.640625 C 55.902344 124.929688 61.804688 130.851562 69.097656 130.863281 C 76.390625 130.875 82.316406 124.972656 82.324219 117.679688 C 82.328125 115.324219 81.714844 113.109375 80.632812 111.191406 C 79.960938 109.996094 80.847656 108.523438 82.21875 108.527344 L 106.375 108.5625 C 107.371094 108.566406 108.175781 107.761719 108.179688 106.765625 L 108.21875 82.308594 C 108.21875 80.90625 109.753906 80.039062 110.953125 80.769531 C 112.953125 81.988281 115.300781 82.691406 117.816406 82.691406 C 125.230469 82.691406 131.21875 76.59375 131.035156 69.140625 C 130.867188 62.1875 125.238281 56.5 118.285156 56.261719 "/></g><g clip-rule="nonzero" clip-path="url(#645ff94815)"><path style=" stroke:none;fill-rule:nonzero;fill:#742c8f;fill-opacity:1;" d="M 19.820312 82.746094 C 22.488281 82.835938 24.980469 82.136719 27.09375 80.863281 C 28.304688 80.136719 29.847656 80.984375 29.84375 82.398438 L 29.804688 106.703125 C 29.804688 107.699219 30.609375 108.503906 31.605469 108.507812 L 106.085938 108.625 C 107.082031 108.628906 107.890625 107.820312 107.890625 106.824219 L 108.007812 32.367188 C 108.011719 31.371094 107.207031 30.5625 106.210938 30.5625 L 82.054688 30.523438 C 80.683594 30.519531 79.800781 29.042969 80.480469 27.851562 C 81.566406 25.9375 82.1875 23.726562 82.191406 21.367188 C 82.203125 14.074219 76.300781 8.152344 69.003906 8.140625 C 61.710938 8.128906 55.789062 14.03125 55.777344 21.324219 C 55.773438 23.683594 56.386719 25.898438 57.46875 27.816406 C 58.140625 29.007812 57.253906 30.484375 55.886719 30.480469 L 31.730469 30.441406 C 30.734375 30.441406 29.925781 31.246094 29.925781 32.242188 L 29.886719 56.699219 C 29.882812 58.101562 28.347656 58.96875 27.152344 58.238281 C 25.152344 57.015625 22.800781 56.3125 20.285156 56.3125 C 12.875 56.3125 6.886719 62.410156 7.070312 69.863281 C 7.238281 76.820312 12.867188 82.507812 19.820312 82.746094 "/></g></g></svg>